<svg width="48" height="48" viewBox="0 0 48 48" fill="none" xmlns="http://www.w3.org/2000/svg">
<path fill-rule="evenodd" clip-rule="evenodd" d="M6.58579 6.58579L8 6H40L41.4142 6.58579L45.4142 10.5858L46 12V36L45.4142 37.4142L41.4142 41.4142L40 42H8L6.58579 41.4142L2.58579 37.4142L2 36V12L2.58579 10.5858L6.58579 6.58579ZM8.82843 10L6 12.8284V35.1716L8.82843 38H39.1716L42 35.1716V12.8284L39.1716 10H8.82843Z" fill="white"/>
<path fill-rule="evenodd" clip-rule="evenodd" d="M5.4453 14.0265L24 26.3963L42.5547 14.0265L44.7735 17.3547L25.1094 30.4641H22.8906L3.2265 17.3547L5.4453 14.0265Z" fill="white"/>
</svg>
