<svg width="48" height="48" viewBox="0 0 48 48" fill="none" xmlns="http://www.w3.org/2000/svg">
<path fill-rule="evenodd" clip-rule="evenodd" d="M8.59557 14.176L10 13.6H38L39.4044 14.176L43.4044 18.1212L44 19.5452V40.4548L43.4044 41.8787L39.4044 45.8239L38 46.4H10L8.59557 45.8239L4.59557 41.8787L4 40.4548V19.5452L4.59557 18.1212L8.59557 14.176ZM10.8204 17.6L8 20.3817V39.6183L10.8204 42.4H37.1796L40 39.6183V20.3817L37.1796 17.6H10.8204Z" fill="white"/>
<path fill-rule="evenodd" clip-rule="evenodd" d="M15.6305 2.37547L17.2118 1.59998H30.7882L32.3695 2.37547L35.1813 6.00659L35.6 7.23109V17.6H31.6V7.91492L29.8074 5.59998H18.1926L16.4 7.91492V17.6H12.4V7.23109L12.8187 6.00659L15.6305 2.37547Z" fill="white"/>
</svg>
