<svg width="48" height="48" viewBox="0 0 48 48" fill="none" xmlns="http://www.w3.org/2000/svg">
<path fill-rule="evenodd" clip-rule="evenodd" d="M8.59557 14.1762L10 13.6001H38L39.4044 14.1762L43.4044 18.1214L44 19.5453V40.4549L43.4044 41.8788L39.4044 45.824L38 46.4001H10L8.59557 45.824L4.59557 41.8788L4 40.4549V19.5453L4.59557 18.1214L8.59557 14.1762ZM10.8204 17.6001L8 20.3818V39.6184L10.8204 42.4001H37.1796L40 39.6184V20.3818L37.1796 17.6001H10.8204Z" fill="white"/>
<path fill-rule="evenodd" clip-rule="evenodd" d="M15.6305 2.37559L17.2118 1.6001H30.7882L32.3695 2.37559L35.1813 6.00671L35.6 7.23122V17.6001H31.6V7.91505L29.8074 5.6001H18.1926L16.4 7.91505V17.6001H12.4V7.23122L12.8187 6.00671L15.6305 2.37559Z" fill="white"/>
<path d="M18 28.5L22.6667 33L32 24" stroke="white" stroke-width="4"/>
</svg>
