<svg width="46" height="45" viewBox="0 0 46 45" fill="none" color="white" xmlns="http://www.w3.org/2000/svg">
<path d="M23 22.5C27.1421 22.5 30.5 19.1421 30.5 15C30.5 10.8579 27.1421 7.5 23 7.5C18.8579 7.5 15.5 10.8579 15.5 15C15.5 19.1421 18.8579 22.5 23 22.5Z" stroke="currentColor" stroke-width="3.5" stroke-linecap="round"/>
<path d="M41.75 32.3995C41.75 33.5272 41.3047 34.6103 40.5093 35.4115C38.6787 37.2564 35.004 40.9581 35.004 40.9581H33.5464L27.9903 35.4115C26.3366 33.7448 26.3366 31.0542 27.9903 29.3876C29.6603 27.7046 32.381 27.7046 34.051 29.3876L34.2498 29.588L34.4486 29.3877C35.2493 28.5804 36.3398 28.125 37.479 28.125C38.6181 28.125 39.7086 28.5803 40.5093 29.3876C41.3047 30.1889 41.75 31.2719 41.75 32.3995Z" stroke="currentColor" stroke-width="3.5"/>
<path d="M9.875 37.5V35.625C9.875 28.3763 15.7513 22.5 23 22.5C25.013 22.5 26.9201 22.9532 28.625 23.7631" stroke="currentColor" stroke-width="3.5" stroke-linecap="square"/>
</svg>
